<mxfile host="Electron" agent="Mozilla/5.0 (Windows NT 10.0; Win64; x64) AppleWebKit/537.36 (KHTML, like Gecko) draw.io/26.2.2 Chrome/134.0.6998.178 Electron/35.1.2 Safari/537.36" version="26.2.2">
  <diagram name="Page-1" id="aUGSM7RTDU24YYiHgagX">
    <mxGraphModel dx="1092" dy="503" grid="1" gridSize="10" guides="1" tooltips="1" connect="1" arrows="1" fold="1" page="1" pageScale="1" pageWidth="850" pageHeight="1100" math="0" shadow="0">
      <root>
        <mxCell id="0" />
        <mxCell id="1" parent="0" />
        <mxCell id="ek1tn9fwyELZqUVrkxUF-1" value="&lt;font&gt;GeometricObject&lt;/font&gt;" style="swimlane;fontStyle=3;align=center;verticalAlign=top;childLayout=stackLayout;horizontal=1;startSize=26;horizontalStack=0;resizeParent=1;resizeParentMax=0;resizeLast=0;collapsible=1;marginBottom=0;whiteSpace=wrap;html=1;fillColor=#b1ddf0;strokeColor=#10739e;" vertex="1" parent="1">
          <mxGeometry x="250" y="120" width="300" height="240" as="geometry" />
        </mxCell>
        <mxCell id="ek1tn9fwyELZqUVrkxUF-2" value="-color: String&lt;div&gt;-filled: boolean&lt;/div&gt;&lt;div&gt;-dateCreated: java.util.Date&lt;/div&gt;" style="text;strokeColor=#6c8ebf;fillColor=#dae8fc;align=left;verticalAlign=top;spacingLeft=4;spacingRight=4;overflow=hidden;rotatable=0;points=[[0,0.5],[1,0.5]];portConstraint=eastwest;whiteSpace=wrap;html=1;spacingTop=-2;" vertex="1" parent="ek1tn9fwyELZqUVrkxUF-1">
          <mxGeometry y="26" width="300" height="54" as="geometry" />
        </mxCell>
        <mxCell id="ek1tn9fwyELZqUVrkxUF-4" value="#GeometricObject()&lt;div&gt;#GeometricObject(color: String, filled: boolean)&lt;/div&gt;&lt;div&gt;+getColor(): String&lt;/div&gt;&lt;div&gt;+isFilled(): boolean&lt;/div&gt;&lt;div&gt;+setColor(color: String): void&lt;/div&gt;&lt;div&gt;+setFilled(filled: boolean): void&lt;/div&gt;&lt;div&gt;+getDateCreated(): java.util.Date&lt;/div&gt;&lt;div&gt;+toString(): String&lt;/div&gt;&lt;div&gt;+&lt;i&gt;getArea()&lt;/i&gt;: &lt;i&gt;double&lt;/i&gt;&lt;/div&gt;&lt;div&gt;+&lt;i&gt;getPerimeter()&lt;/i&gt;: &lt;i&gt;double&lt;/i&gt;&lt;/div&gt;" style="text;strokeColor=#6c8ebf;fillColor=#dae8fc;align=left;verticalAlign=top;spacingLeft=4;spacingRight=4;overflow=hidden;rotatable=0;points=[[0,0.5],[1,0.5]];portConstraint=eastwest;whiteSpace=wrap;html=1;" vertex="1" parent="ek1tn9fwyELZqUVrkxUF-1">
          <mxGeometry y="80" width="300" height="160" as="geometry" />
        </mxCell>
        <mxCell id="ek1tn9fwyELZqUVrkxUF-5" value="Circle" style="swimlane;fontStyle=1;align=center;verticalAlign=top;childLayout=stackLayout;horizontal=1;startSize=26;horizontalStack=0;resizeParent=1;resizeParentMax=0;resizeLast=0;collapsible=1;marginBottom=0;whiteSpace=wrap;html=1;fillColor=#b1ddf0;strokeColor=#10739e;spacingTop=0;" vertex="1" parent="1">
          <mxGeometry x="70" y="410" width="290" height="160" as="geometry" />
        </mxCell>
        <mxCell id="ek1tn9fwyELZqUVrkxUF-6" value="-radius: double" style="text;strokeColor=#6c8ebf;fillColor=#dae8fc;align=left;verticalAlign=top;spacingLeft=4;spacingRight=4;overflow=hidden;rotatable=0;points=[[0,0.5],[1,0.5]];portConstraint=eastwest;whiteSpace=wrap;html=1;" vertex="1" parent="ek1tn9fwyELZqUVrkxUF-5">
          <mxGeometry y="26" width="290" height="26" as="geometry" />
        </mxCell>
        <mxCell id="ek1tn9fwyELZqUVrkxUF-8" value="+Circle()&lt;div&gt;+Circle(radius: double)&lt;/div&gt;&lt;div&gt;+Circle(radius: double, color: String, filled: boolean)&lt;/div&gt;&lt;div&gt;+getRadius(): double&lt;/div&gt;&lt;div&gt;+getDiameter(): double&lt;/div&gt;&lt;div&gt;+setRadius(radius: double): void&lt;/div&gt;&lt;div&gt;+equals(o: Circle): boolean&lt;/div&gt;" style="text;strokeColor=#6c8ebf;fillColor=#dae8fc;align=left;verticalAlign=top;spacingLeft=4;spacingRight=4;overflow=hidden;rotatable=0;points=[[0,0.5],[1,0.5]];portConstraint=eastwest;whiteSpace=wrap;html=1;spacingTop=-3;" vertex="1" parent="ek1tn9fwyELZqUVrkxUF-5">
          <mxGeometry y="52" width="290" height="108" as="geometry" />
        </mxCell>
        <mxCell id="ek1tn9fwyELZqUVrkxUF-13" value="Circle" style="html=1;whiteSpace=wrap;fillColor=#dae8fc;strokeColor=#6c8ebf;" vertex="1" parent="1">
          <mxGeometry x="440" y="485" width="110" height="30" as="geometry" />
        </mxCell>
        <mxCell id="ek1tn9fwyELZqUVrkxUF-14" value="&amp;lt;&amp;lt;interface&amp;gt;&amp;gt;&lt;div&gt;java.lang.Comparable&amp;lt;circle&amp;gt;&lt;/div&gt;" style="html=1;whiteSpace=wrap;fillColor=#dae8fc;strokeColor=#6c8ebf;" vertex="1" parent="1">
          <mxGeometry x="610" y="475" width="180" height="50" as="geometry" />
        </mxCell>
        <mxCell id="ek1tn9fwyELZqUVrkxUF-16" style="edgeStyle=orthogonalEdgeStyle;rounded=0;orthogonalLoop=1;jettySize=auto;html=1;exitX=0.5;exitY=1;exitDx=0;exitDy=0;entryX=0.5;entryY=0;entryDx=0;entryDy=0;" edge="1" parent="1" source="ek1tn9fwyELZqUVrkxUF-13" target="ek1tn9fwyELZqUVrkxUF-13">
          <mxGeometry relative="1" as="geometry">
            <Array as="points">
              <mxPoint x="495" y="530" />
              <mxPoint x="420" y="530" />
              <mxPoint x="420" y="470" />
              <mxPoint x="495" y="470" />
            </Array>
          </mxGeometry>
        </mxCell>
        <mxCell id="ek1tn9fwyELZqUVrkxUF-17" value="1" style="text;html=1;align=center;verticalAlign=middle;resizable=0;points=[];autosize=1;strokeColor=none;fillColor=none;" vertex="1" parent="1">
          <mxGeometry x="489" y="508" width="30" height="30" as="geometry" />
        </mxCell>
        <mxCell id="ek1tn9fwyELZqUVrkxUF-18" value="1" style="text;html=1;align=center;verticalAlign=middle;resizable=0;points=[];autosize=1;strokeColor=none;fillColor=none;" vertex="1" parent="1">
          <mxGeometry x="489" y="462" width="30" height="30" as="geometry" />
        </mxCell>
        <mxCell id="ek1tn9fwyELZqUVrkxUF-19" value="" style="endArrow=block;dashed=1;endFill=0;endSize=12;html=1;rounded=0;exitX=1;exitY=0.5;exitDx=0;exitDy=0;entryX=0;entryY=0.5;entryDx=0;entryDy=0;" edge="1" parent="1" source="ek1tn9fwyELZqUVrkxUF-13" target="ek1tn9fwyELZqUVrkxUF-14">
          <mxGeometry width="160" relative="1" as="geometry">
            <mxPoint x="330" y="460" as="sourcePoint" />
            <mxPoint x="490" y="460" as="targetPoint" />
          </mxGeometry>
        </mxCell>
        <mxCell id="ek1tn9fwyELZqUVrkxUF-20" value="equals" style="text;html=1;align=center;verticalAlign=middle;resizable=0;points=[];autosize=1;strokeColor=none;fillColor=none;" vertex="1" parent="1">
          <mxGeometry x="427" y="525" width="60" height="30" as="geometry" />
        </mxCell>
        <mxCell id="ek1tn9fwyELZqUVrkxUF-21" value="" style="endArrow=block;endSize=16;endFill=0;html=1;rounded=0;exitX=0.5;exitY=0;exitDx=0;exitDy=0;entryX=0.203;entryY=1.001;entryDx=0;entryDy=0;entryPerimeter=0;" edge="1" parent="1" source="ek1tn9fwyELZqUVrkxUF-5" target="ek1tn9fwyELZqUVrkxUF-4">
          <mxGeometry width="160" relative="1" as="geometry">
            <mxPoint x="320" y="450" as="sourcePoint" />
            <mxPoint x="480" y="450" as="targetPoint" />
            <Array as="points">
              <mxPoint x="215" y="390" />
              <mxPoint x="311" y="390" />
            </Array>
          </mxGeometry>
        </mxCell>
      </root>
    </mxGraphModel>
  </diagram>
</mxfile>
